<svg width="158" height="26" viewBox="0 0 158 26" fill="none" xmlns="http://www.w3.org/2000/svg">
<path d="M23.6363 18.56C22.6667 20.4146 21.229 21.9834 19.4658 23.1107C17.7026 24.238 15.6753 24.8845 13.585 24.9862L13.9813 22.9312C14.0107 22.777 14.0035 22.6179 13.96 22.467C13.9166 22.3161 13.8382 22.1775 13.7313 22.0625L11.2638 19.5212C11.1307 19.3777 11.0428 19.1982 11.0108 19.0051C10.9788 18.812 11.0042 18.6138 11.0838 18.435L12.7963 14.5925C12.8843 14.395 13.0339 14.2314 13.2228 14.1262C13.4116 14.0209 13.6295 13.9797 13.8438 14.0087L16.6963 14.3937C16.8344 14.4127 16.9672 14.4599 17.0863 14.5325L23.6363 18.56ZM11.5888 8.875L13.125 8.03C13.1928 7.99333 13.2558 7.94841 13.3125 7.89625L16.6763 4.855C16.8437 4.70272 16.9545 4.49816 16.9906 4.27474C17.0267 4.05132 16.986 3.82226 16.875 3.625L15.5625 1.27375C14.7205 1.09137 13.8615 0.999597 13 1C10.2609 0.995822 7.60342 1.93268 5.47251 3.65375L4.00001 7.135C3.90054 7.37067 3.89518 7.63549 3.98501 7.875L5.42251 11.7087C5.48157 11.8654 5.57901 12.0047 5.7059 12.1139C5.83279 12.2231 5.98506 12.2987 6.14876 12.3337L6.48501 12.4062L8.15001 9.5C8.2379 9.34776 8.36437 9.22139 8.51667 9.13361C8.66897 9.04582 8.84172 8.99974 9.01751 9H11.1063C11.2751 9.00028 11.4413 8.95724 11.5888 8.875Z" fill="#EF5F4C"/>
<path d="M13 0C10.4288 0 7.91543 0.762437 5.77759 2.1909C3.63975 3.61935 1.97351 5.64968 0.989572 8.02512C0.0056327 10.4006 -0.251811 13.0144 0.249797 15.5362C0.751405 18.0579 1.98953 20.3743 3.80762 22.1924C5.6257 24.0105 7.94208 25.2486 10.4638 25.7502C12.9856 26.2518 15.5995 25.9944 17.9749 25.0104C20.3503 24.0265 22.3807 22.3603 23.8091 20.2224C25.2376 18.0846 26 15.5712 26 13C25.9964 9.5533 24.6256 6.24882 22.1884 3.81163C19.7512 1.37445 16.4467 0.00363977 13 0ZM24 13C24.0011 14.4112 23.7295 15.8094 23.2 17.1175L17.6125 13.6812C17.3749 13.5347 17.1092 13.4397 16.8325 13.4025L13.98 13.0175C13.5869 12.9662 13.1875 13.0321 12.8317 13.2069C12.476 13.3817 12.1797 13.6576 11.98 14H10.89L10.415 13.0175C10.2837 12.7439 10.0915 12.504 9.85318 12.3162C9.61485 12.1283 9.33669 11.9975 9.04001 11.9338L8.04001 11.7175L9.01751 10H11.1063C11.4442 9.99934 11.7766 9.91335 12.0725 9.75L13.6038 8.905C13.7383 8.83001 13.8641 8.74029 13.9788 8.6375L17.3425 5.595C17.6798 5.29277 17.9039 4.8846 17.978 4.43784C18.0521 3.99108 17.9717 3.53241 17.75 3.1375L17.705 3.05625C19.5873 3.94875 21.1778 5.35674 22.292 7.11682C23.4063 8.8769 23.9985 10.9169 24 13ZM14.9138 2.1675L16 4.1125L12.6363 7.155L11.1063 8H9.01751C8.66593 7.99948 8.32043 8.09165 8.01583 8.26721C7.71123 8.44277 7.45829 8.69553 7.28251 9L6.19126 10.9038L4.92251 7.52375L6.29001 4.29C7.50043 3.35474 8.89287 2.68262 10.3781 2.31669C11.8633 1.95076 13.4086 1.8991 14.915 2.165L14.9138 2.1675ZM2.00001 13C1.99834 11.365 2.36311 9.75046 3.06751 8.275L4.48501 12.0588C4.60313 12.372 4.79802 12.6506 5.0518 12.869C5.30558 13.0874 5.61012 13.2386 5.93751 13.3088L8.61626 13.885L9.09251 14.875C9.25779 15.2117 9.51393 15.4955 9.83201 15.6943C10.1501 15.8931 10.5174 15.999 10.8925 16H11.0775L10.1738 18.0287C10.0145 18.386 9.96352 18.782 10.0271 19.168C10.0906 19.5539 10.2659 19.9127 10.5313 20.2L10.5488 20.2175L13 22.7425L12.7575 23.9925C9.88479 23.9256 7.15195 22.7387 5.14216 20.685C3.13236 18.6313 2.00477 15.8735 2.00001 13ZM14.8225 23.8475L14.9638 23.1213C15.0218 22.8127 15.0068 22.4949 14.92 22.1931C14.8332 21.8914 14.6769 21.6142 14.4638 21.3838C14.4576 21.3782 14.4518 21.3724 14.4463 21.3662L12 18.8425L13.7125 15L16.565 15.385L22.28 18.9C21.452 20.2003 20.3605 21.3125 19.076 22.1647C17.7914 23.0169 16.3424 23.5902 14.8225 23.8475Z" fill="#EF5F4C"/>
<path d="M48.34 5.96V8.7H44.62V20H41.2V8.7H37.48V5.96H48.34Z" fill="#EF5F4C"/>
<path d="M53.4764 10.7C53.8764 10.0867 54.3764 9.60667 54.9764 9.26C55.5764 8.9 56.2431 8.72 56.9764 8.72V12.34H56.0364C55.1831 12.34 54.5431 12.5267 54.1164 12.9C53.6897 13.26 53.4764 13.9 53.4764 14.82V20H50.0564V8.84H53.4764V10.7Z" fill="#EF5F4C"/>
<path d="M57.9311 14.4C57.9311 13.2533 58.1444 12.2467 58.5711 11.38C59.0111 10.5133 59.6044 9.84667 60.3511 9.38C61.0978 8.91333 61.9311 8.68 62.8511 8.68C63.6378 8.68 64.3244 8.84 64.9111 9.16C65.5111 9.48 65.9711 9.9 66.2911 10.42V8.84H69.7111V20H66.2911V18.42C65.9578 18.94 65.4911 19.36 64.8911 19.68C64.3044 20 63.6178 20.16 62.8311 20.16C61.9244 20.16 61.0978 19.9267 60.3511 19.46C59.6044 18.98 59.0111 18.3067 58.5711 17.44C58.1444 16.56 57.9311 15.5467 57.9311 14.4ZM66.2911 14.42C66.2911 13.5667 66.0511 12.8933 65.5711 12.4C65.1044 11.9067 64.5311 11.66 63.8511 11.66C63.1711 11.66 62.5911 11.9067 62.1111 12.4C61.6444 12.88 61.4111 13.5467 61.4111 14.4C61.4111 15.2533 61.6444 15.9333 62.1111 16.44C62.5911 16.9333 63.1711 17.18 63.8511 17.18C64.5311 17.18 65.1044 16.9333 65.5711 16.44C66.0511 15.9467 66.2911 15.2733 66.2911 14.42Z" fill="#EF5F4C"/>
<path d="M77.2053 16.8L79.6253 8.84H83.2653L79.3053 20H75.0853L71.1253 8.84H74.7853L77.2053 16.8Z" fill="#EF5F4C"/>
<path d="M95.2248 14.24C95.2248 14.56 95.2048 14.8933 95.1648 15.24H87.4249C87.4782 15.9333 87.6982 16.4667 88.0848 16.84C88.4848 17.2 88.9715 17.38 89.5449 17.38C90.3982 17.38 90.9915 17.02 91.3249 16.3H94.9649C94.7782 17.0333 94.4382 17.6933 93.9448 18.28C93.4648 18.8667 92.8582 19.3267 92.1248 19.66C91.3915 19.9933 90.5715 20.16 89.6648 20.16C88.5715 20.16 87.5982 19.9267 86.7449 19.46C85.8915 18.9933 85.2249 18.3267 84.7449 17.46C84.2649 16.5933 84.0248 15.58 84.0248 14.42C84.0248 13.26 84.2582 12.2467 84.7248 11.38C85.2048 10.5133 85.8715 9.84667 86.7248 9.38C87.5782 8.91333 88.5582 8.68 89.6648 8.68C90.7448 8.68 91.7049 8.90667 92.5449 9.36C93.3849 9.81333 94.0382 10.46 94.5049 11.3C94.9849 12.14 95.2248 13.12 95.2248 14.24ZM91.7249 13.34C91.7249 12.7533 91.5248 12.2867 91.1248 11.94C90.7248 11.5933 90.2248 11.42 89.6248 11.42C89.0515 11.42 88.5648 11.5867 88.1648 11.92C87.7782 12.2533 87.5382 12.7267 87.4448 13.34H91.7249Z" fill="#EF5F4C"/>
<path d="M100.449 5.2V20H97.0291V5.2H100.449Z" fill="#EF5F4C"/>
<path d="M107.168 8.68C107.954 8.68 108.641 8.84 109.228 9.16C109.828 9.48 110.288 9.9 110.608 10.42V8.84H114.028V19.98C114.028 21.0067 113.821 21.9333 113.408 22.76C113.008 23.6 112.388 24.2667 111.548 24.76C110.721 25.2533 109.688 25.5 108.448 25.5C106.794 25.5 105.454 25.1067 104.428 24.32C103.401 23.5467 102.814 22.4933 102.668 21.16H106.048C106.154 21.5867 106.408 21.92 106.808 22.16C107.208 22.4133 107.701 22.54 108.288 22.54C108.994 22.54 109.554 22.3333 109.968 21.92C110.394 21.52 110.608 20.8733 110.608 19.98V18.4C110.274 18.92 109.814 19.3467 109.228 19.68C108.641 20 107.954 20.16 107.168 20.16C106.248 20.16 105.414 19.9267 104.668 19.46C103.921 18.98 103.328 18.3067 102.888 17.44C102.461 16.56 102.248 15.5467 102.248 14.4C102.248 13.2533 102.461 12.2467 102.888 11.38C103.328 10.5133 103.921 9.84667 104.668 9.38C105.414 8.91333 106.248 8.68 107.168 8.68ZM110.608 14.42C110.608 13.5667 110.368 12.8933 109.888 12.4C109.421 11.9067 108.848 11.66 108.168 11.66C107.488 11.66 106.908 11.9067 106.428 12.4C105.961 12.88 105.728 13.5467 105.728 14.4C105.728 15.2533 105.961 15.9333 106.428 16.44C106.908 16.9333 107.488 17.18 108.168 17.18C108.848 17.18 109.421 16.9333 109.888 16.44C110.368 15.9467 110.608 15.2733 110.608 14.42Z" fill="#EF5F4C"/>
<path d="M119.922 10.7C120.322 10.0867 120.822 9.60667 121.422 9.26C122.022 8.9 122.688 8.72 123.422 8.72V12.34H122.482C121.628 12.34 120.988 12.5267 120.562 12.9C120.135 13.26 119.922 13.9 119.922 14.82V20H116.502V8.84H119.922V10.7Z" fill="#EF5F4C"/>
<path d="M124.376 14.4C124.376 13.2533 124.59 12.2467 125.016 11.38C125.456 10.5133 126.05 9.84667 126.796 9.38C127.543 8.91333 128.376 8.68 129.296 8.68C130.083 8.68 130.77 8.84 131.356 9.16C131.956 9.48 132.416 9.9 132.736 10.42V8.84H136.156V20H132.736V18.42C132.403 18.94 131.936 19.36 131.336 19.68C130.75 20 130.063 20.16 129.276 20.16C128.37 20.16 127.543 19.9267 126.796 19.46C126.05 18.98 125.456 18.3067 125.016 17.44C124.59 16.56 124.376 15.5467 124.376 14.4ZM132.736 14.42C132.736 13.5667 132.496 12.8933 132.016 12.4C131.55 11.9067 130.976 11.66 130.296 11.66C129.616 11.66 129.036 11.9067 128.556 12.4C128.09 12.88 127.856 13.5467 127.856 14.4C127.856 15.2533 128.09 15.9333 128.556 16.44C129.036 16.9333 129.616 17.18 130.296 17.18C130.976 17.18 131.55 16.9333 132.016 16.44C132.496 15.9467 132.736 15.2733 132.736 14.42Z" fill="#EF5F4C"/>
<path d="M152.871 8.72C154.257 8.72 155.357 9.14 156.171 9.98C156.997 10.82 157.411 11.9867 157.411 13.48V20H154.011V13.94C154.011 13.22 153.817 12.6667 153.431 12.28C153.057 11.88 152.537 11.68 151.871 11.68C151.204 11.68 150.677 11.88 150.291 12.28C149.917 12.6667 149.731 13.22 149.731 13.94V20H146.331V13.94C146.331 13.22 146.137 12.6667 145.751 12.28C145.377 11.88 144.857 11.68 144.191 11.68C143.524 11.68 142.997 11.88 142.611 12.28C142.237 12.6667 142.051 13.22 142.051 13.94V20H138.631V8.84H142.051V10.24C142.397 9.77333 142.851 9.40667 143.411 9.14C143.971 8.86 144.604 8.72 145.311 8.72C146.151 8.72 146.897 8.9 147.551 9.26C148.217 9.62 148.737 10.1333 149.111 10.8C149.497 10.1867 150.024 9.68667 150.691 9.3C151.357 8.91333 152.084 8.72 152.871 8.72Z" fill="#EF5F4C"/>
</svg>
